# xmcd CD database file
#
# Track frame offsets:
#	150
#	25314
#	42446
#	67289
#	88497
#	104255
#
# Disc length: 1708 seconds
#
# Revision: 0
# Processed by: cddbd v1.5.2PL0 Copyright (c) Steve Scherf et al.
# Submitted via: CDex 1.51
#
DISCID=5606aa06
DTITLE=Phineas Newborn - Pnineas Newborn Plays Again!
DYEAR=1958
DGENRE=Jazz
TTITLE0=Night In Tunisia
TTITLE1=Nica's Dream
TTITLE2=Airegin
TTITLE3=Bag's Groove
TTITLE4=C Jam Blues
TTITLE5=Walkin'
EXTD=YEAR: 1958
EXTT0=
EXTT1=
EXTT2=
EXTT3=
EXTT4=
EXTT5=
PLAYORDER=
